<?xml version="1.0" standalone="no"?>
<!DOCTYPE svg PUBLIC "-//W3C//DTD SVG 20010904//EN"
 "http://www.w3.org/TR/2001/REC-SVG-20010904/DTD/svg10.dtd">
<svg version="1.0" xmlns="http://www.w3.org/2000/svg"
 width="980.000000pt" height="980.000000pt" viewBox="0 0 980.000000 980.000000"
 preserveAspectRatio="xMidYMid meet">

<g transform="translate(0.000000,980.000000) scale(0.100000,-0.100000)"
fill="#000000" stroke="none">
<path d="M4640 9793 c-381 -26 -614 -62 -940 -143 -590 -147 -1173 -420 -1675
-785 -406 -296 -815 -706 -1103 -1108 -728 -1016 -1039 -2244 -881 -3482 118
-922 488 -1770 1094 -2507 140 -170 461 -491 633 -633 1073 -885 2424 -1273
3787 -1090 1037 140 1999 607 2750 1337 299 290 538 586 766 951 107 171 304
560 378 747 623 1576 404 3336 -584 4695 -284 390 -665 775 -1050 1060 -857
636 -1885 972 -2940 963 -104 -1 -210 -3 -235 -5z m626 -1788 c308 -38 584
-115 876 -242 l128 -55 54 49 c159 146 335 213 559 213 138 0 236 -22 354 -80
403 -198 572 -683 377 -1085 -19 -38 -54 -96 -78 -128 l-44 -59 44 -75 c101
-169 238 -466 299 -645 180 -524 223 -1126 114 -1591 -109 -464 -379 -873
-824 -1246 -60 -50 -122 -102 -137 -115 -35 -30 -36 -69 -3 -101 47 -48 72
-36 270 134 133 113 303 284 398 399 109 131 191 256 273 415 l71 138 54 -68
c262 -327 474 -734 604 -1162 l35 -114 -76 -115 c-672 -1022 -1754 -1731
-2956 -1936 -278 -48 -430 -60 -758 -60 -468 0 -807 46 -1235 169 -1026 294
-1929 968 -2513 1876 l-42 66 30 100 c125 422 339 838 596 1162 l67 84 66
-129 c120 -236 255 -419 466 -629 128 -128 325 -300 417 -363 77 -53 148 -36
148 35 0 35 -22 73 -43 73 -14 0 -218 174 -338 288 -296 281 -514 606 -619
921 -115 343 -139 759 -69 1218 60 398 177 724 408 1137 l61 110 -28 30 c-44
47 -90 120 -127 199 -180 390 -19 858 364 1056 123 64 198 83 346 88 108 4
144 2 216 -15 149 -36 284 -110 386 -211 l52 -52 81 41 c318 160 689 256 1140
294 88 8 417 -4 536 -19z"/>
<path d="M3689 6587 c-249 -70 -334 -368 -156 -551 88 -89 229 -121 351 -80
64 22 148 101 183 172 39 80 40 191 1 273 -66 144 -235 226 -379 186z"/>
<path d="M5929 6587 c-100 -28 -182 -97 -223 -186 -32 -71 -30 -198 6 -273 31
-66 91 -128 156 -160 39 -19 63 -23 142 -23 79 0 103 4 142 23 65 32 125 94
156 160 37 78 39 204 4 273 -71 146 -238 227 -383 186z"/>
<path d="M4711 5550 c-173 -46 -273 -154 -287 -312 -18 -190 92 -384 266 -472
40 -20 81 -36 91 -36 30 0 23 -15 -37 -79 -69 -74 -128 -119 -219 -164 -114
-56 -184 -71 -320 -71 -132 0 -206 15 -310 63 -127 59 -146 61 -192 19 -52
-48 -35 -115 43 -167 223 -148 606 -161 867 -30 86 43 159 93 223 152 l54 49
54 -49 c166 -152 361 -231 592 -240 150 -6 248 9 375 58 154 59 215 122 186
192 -30 71 -83 79 -192 27 -233 -110 -496 -102 -702 22 -60 36 -171 133 -203
177 l-19 28 64 22 c116 37 191 95 257 196 113 172 103 406 -22 519 -52 47
-106 73 -197 97 -103 26 -270 25 -372 -1z"/>
</g>
</svg>
