<?xml version="1.0" standalone="no"?>
<!DOCTYPE svg PUBLIC "-//W3C//DTD SVG 20010904//EN"
 "http://www.w3.org/TR/2001/REC-SVG-20010904/DTD/svg10.dtd">
<svg version="1.0" xmlns="http://www.w3.org/2000/svg"
 width="561.000000pt" height="750.000000pt" viewBox="0 0 561.000000 750.000000"
 preserveAspectRatio="xMidYMid meet">

<g transform="translate(0.000000,750.000000) scale(0.100000,-0.100000)"
fill="#000000" stroke="none">
<path d="M2760 7330 c0 -10 -9 -27 -19 -37 -27 -26 -32 -68 -7 -68 15 0 23 14
37 63 15 52 15 62 3 62 -8 0 -14 -9 -14 -20z"/>
<path d="M2390 7301 c0 -6 5 -13 10 -16 14 -9 13 -36 -1 -32 -16 3 -33 -63
-21 -75 16 -16 29 -1 35 39 4 21 9 50 13 66 5 23 3 27 -15 27 -11 0 -21 -4
-21 -9z"/>
<path d="M3170 7256 c0 -7 -9 -21 -20 -31 -25 -23 -23 -73 3 -87 10 -5 20 -8
21 -6 2 2 9 31 18 65 13 58 13 62 -4 66 -10 3 -18 0 -18 -7z"/>
<path d="M3374 7211 c4 -6 14 -11 22 -11 8 0 14 -4 14 -10 0 -5 5 -10 12 -10
6 0 20 -8 31 -17 11 -10 17 -12 13 -5 -9 16 4 15 26 -2 10 -7 14 -17 10 -21
-4 -5 -1 -5 6 0 17 9 9 16 -48 48 -56 31 -95 43 -86 28z"/>
<path d="M3324 7183 c-3 -10 -10 -30 -16 -45 -11 -29 -4 -48 16 -48 17 0 46
33 46 51 0 12 -2 11 -11 -1 -8 -11 -9 -5 -4 23 5 30 3 37 -10 37 -9 0 -18 -8
-21 -17z"/>
<path d="M2494 7172 c-12 -8 -34 -46 -34 -59 0 -4 9 7 20 25 16 25 25 32 40
27 11 -4 20 -2 20 4 0 12 -29 14 -46 3z"/>
<path d="M2544 7163 c-4 -10 -8 -33 -8 -51 l-1 -33 23 26 c25 30 28 48 8 64
-11 9 -15 8 -22 -6z"/>
<path d="M3531 7123 c4 -18 -14 -43 -32 -43 -10 0 -23 -8 -28 -17 -27 -46 -25
-46 -86 -18 -32 14 -71 29 -86 32 -27 5 -29 3 -45 -53 -9 -33 -23 -67 -31 -76
-8 -9 -12 -22 -7 -29 5 -8 1 -10 -12 -7 -10 3 -74 22 -140 41 -125 37 -296 67
-378 67 -42 0 -46 -2 -46 -24 0 -13 3 -32 6 -40 9 -23 34 -1 34 30 0 29 6 29
115 10 111 -20 211 -46 231 -60 15 -11 13 -21 -20 -109 -22 -58 -36 -114 -36
-141 0 -27 -9 -64 -24 -93 -13 -26 -27 -64 -31 -83 -4 -19 -22 -75 -40 -125
-73 -198 -136 -397 -131 -411 3 -8 15 -14 26 -14 15 0 20 7 20 25 0 14 24 89
53 167 30 79 71 199 91 268 74 249 129 406 152 441 13 19 24 40 24 47 0 19 12
14 59 -23 24 -19 47 -35 52 -35 4 0 9 -15 11 -32 2 -23 8 -33 19 -32 10 1 15
-5 13 -15 -3 -9 0 -23 5 -31 9 -13 12 -12 25 5 18 24 20 10 5 -36 -13 -39 -38
-71 -49 -64 -5 3 -12 -6 -17 -19 -8 -24 -43 -73 -79 -111 -11 -12 -18 -27 -16
-34 2 -6 -1 -17 -6 -24 -6 -7 -36 -77 -67 -157 -53 -134 -99 -226 -80 -160 l7
25 -21 -24 c-11 -13 -21 -24 -21 -25 0 -1 -7 -37 -15 -81 -19 -96 -35 -126
-67 -118 -13 3 -20 3 -16 -2 6 -6 2 -22 -28 -100 -4 -11 -6 -23 -6 -27 1 -5
-3 -8 -9 -8 -5 0 -7 -5 -4 -10 9 -14 -51 0 -180 40 -60 19 -181 42 -244 46
-54 4 -63 3 -58 -10 4 -9 0 -35 -8 -58 -7 -24 -17 -56 -22 -73 l-8 -30 -120
-5 c-127 -6 -219 -24 -247 -48 -14 -12 -20 -12 -33 -2 -11 9 -15 10 -15 0 0
-6 -26 -44 -58 -83 -79 -97 -142 -187 -114 -163 19 17 22 17 22 3 0 -10 -5
-17 -12 -17 -6 0 -9 -3 -5 -6 3 -4 0 -23 -9 -42 -13 -31 -5 -25 61 44 41 43
72 70 68 59 -5 -16 -4 -18 8 -7 7 6 25 12 39 12 14 0 32 6 40 13 9 7 9 4 -1
-8 -9 -11 -28 -43 -42 -72 l-26 -52 25 10 c14 5 40 20 57 33 60 44 85 52 42
11 -32 -29 -34 -33 -10 -17 57 36 59 37 52 18 -6 -14 -2 -14 24 5 25 17 33 19
39 9 6 -10 12 -11 22 -3 30 24 87 51 90 42 2 -5 19 1 38 14 70 47 90 59 90 54
0 -3 -32 -27 -71 -53 -39 -26 -128 -102 -198 -170 -69 -68 -130 -122 -135
-121 -5 2 -2 9 6 17 31 32 70 90 60 90 -5 0 -15 -7 -22 -15 -7 -8 -20 -15 -28
-15 -9 0 -32 -15 -51 -32 -18 -18 -31 -27 -27 -20 17 29 -11 7 -86 -70 -82
-83 -93 -82 -21 2 21 25 47 61 57 80 l19 35 -42 -40 c-22 -21 -41 -33 -41 -26
0 11 -18 0 -79 -51 -12 -10 -13 -8 -7 13 4 13 11 39 16 57 4 18 14 40 21 50 7
9 -3 2 -22 -15 -19 -18 -40 -33 -46 -33 -6 0 -20 -15 -31 -32 -17 -26 -22 -29
-27 -17 -6 16 39 108 98 199 l28 45 -35 -40 c-109 -123 -186 -337 -186 -517
l0 -67 -90 -87 c-57 -55 -90 -95 -90 -108 0 -17 2 -18 10 -6 7 10 10 11 10 2
0 -7 17 -38 39 -70 21 -31 46 -73 56 -92 10 -19 21 -37 25 -40 23 -15 157
-234 215 -350 78 -155 228 -398 320 -516 128 -164 235 -366 243 -461 7 -82 -1
-98 -73 -146 -70 -47 -96 -75 -112 -122 -25 -71 -25 -71 1 -40 14 17 26 35 26
41 0 21 64 68 153 114 92 47 105 59 297 269 101 111 142 141 409 301 250 150
280 169 322 204 19 15 87 70 152 122 64 52 117 98 117 102 0 10 41 34 47 28 7
-6 -170 -183 -252 -252 -49 -41 -254 -180 -323 -219 -50 -28 -112 -73 -152
-110 -25 -23 -72 -62 -105 -88 -33 -25 -98 -84 -145 -132 -131 -133 -282 -250
-408 -314 -75 -38 -139 -137 -163 -249 -6 -30 -9 -56 -6 -58 2 -3 78 7 168 22
90 15 200 30 244 35 182 19 287 54 363 123 62 56 82 106 83 207 2 171 42 293
119 363 58 53 114 76 183 76 31 0 57 3 57 8 0 4 16 16 35 26 19 11 35 22 35
26 0 19 38 49 56 44 12 -3 30 5 49 23 17 16 58 51 92 77 48 37 68 47 86 42 14
-3 32 0 43 9 10 8 27 15 37 15 9 0 17 5 17 10 0 6 10 10 22 10 12 0 18 -3 15
-6 -3 -4 -2 -16 4 -26 9 -16 18 -19 44 -15 20 3 35 1 37 -5 4 -11 68 20 68 33
0 3 11 11 25 17 32 15 56 16 35 2 -12 -8 -9 -10 13 -10 16 0 40 9 54 20 37 29
56 27 52 -6 0 -3 16 -18 35 -33 20 -16 33 -31 30 -34 -3 -3 5 -3 18 0 18 4 20
3 8 -6 -13 -9 -13 -11 3 -11 10 0 17 -8 17 -20 0 -11 7 -20 15 -20 9 0 15 -9
15 -25 0 -14 5 -25 12 -25 6 0 21 -9 32 -19 19 -17 26 -18 63 -8 34 9 45 8 55
-2 9 -9 9 -12 1 -7 -6 3 -14 2 -18 -4 -3 -5 2 -10 12 -10 10 0 29 -6 43 -13
27 -14 96 -11 106 4 3 5 21 -7 39 -28 32 -36 35 -37 64 -26 18 6 33 7 37 2 3
-5 -2 -9 -10 -9 -11 0 -16 -9 -16 -26 0 -21 3 -25 18 -19 9 4 36 12 59 18 40
10 44 9 68 -17 27 -29 27 -66 -1 -66 -8 0 -14 -6 -14 -13 0 -22 -32 -43 -85
-56 -126 -31 -439 -183 -595 -289 -121 -82 -194 -145 -183 -157 5 -4 3 -5 -3
-2 -13 8 -77 -56 -67 -67 5 -4 1 -6 -7 -4 -8 2 -14 -3 -12 -10 1 -8 -1 -11 -6
-8 -4 2 -21 -11 -38 -31 -174 -212 -267 -340 -258 -355 4 -7 4 -10 -1 -6 -11
10 -85 -96 -85 -121 0 -28 -14 -26 -50 7 -25 23 -35 47 -61 147 -16 66 -50
164 -75 217 -58 125 -77 228 -72 393 4 142 15 168 107 262 34 34 61 68 61 77
0 19 -22 34 -28 18 -2 -7 -8 -12 -14 -12 -6 0 -16 -6 -22 -13 -6 -8 -32 -22
-58 -31 -48 -18 -65 -36 -88 -96 -7 -19 -24 -51 -37 -71 -13 -20 -26 -54 -30
-75 -3 -22 -21 -62 -39 -91 -19 -28 -34 -54 -34 -58 0 -4 -15 -24 -32 -45 -18
-21 -42 -53 -52 -71 l-20 -33 28 21 c26 21 56 22 56 2 0 -5 7 -9 15 -9 11 0
15 -12 15 -49 0 -54 -11 -66 -82 -92 -21 -7 -40 -20 -43 -28 -3 -10 -19 -17
-42 -19 -21 -1 -39 -7 -41 -12 -2 -6 -16 -10 -30 -10 -19 0 -23 3 -14 9 24 14
-141 24 -190 11 -23 -7 -53 -13 -65 -15 -41 -4 -83 -58 -83 -107 0 -13 -7 -36
-16 -53 -14 -27 -13 -35 2 -93 17 -61 17 -65 0 -74 -9 -5 -28 -28 -43 -51 -22
-35 -27 -55 -29 -122 -1 -47 2 -83 8 -86 7 -5 -2 -40 -25 -100 -50 -135 -53
-160 -16 -199 34 -35 32 -61 -7 -97 -28 -26 -23 -50 12 -59 18 -5 22 -10 14
-19 -5 -6 -6 -16 -2 -20 17 -20 -76 41 -107 69 -71 66 -161 223 -161 282 0 18
-12 57 -26 87 -47 104 -19 183 44 124 15 -14 41 -32 57 -40 17 -8 47 -29 69
-46 30 -24 42 -28 57 -20 21 11 26 48 7 51 -24 2 -33 5 -78 18 -25 8 -56 21
-68 29 -13 8 -38 22 -55 31 -42 23 -89 113 -95 184 -4 45 -1 57 17 75 21 21
21 21 2 40 -49 49 -48 144 1 207 25 31 34 69 18 79 -14 9 -12 61 4 93 7 15 16
54 20 86 9 79 24 108 106 196 107 113 107 152 2 329 -38 64 -84 145 -102 180
-17 35 -50 84 -74 110 -60 66 -116 138 -116 149 0 5 -18 37 -40 71 -22 34 -53
88 -70 120 -16 32 -42 78 -59 102 -46 69 -129 213 -193 334 -31 61 -57 106
-58 101 0 -4 34 -80 75 -167 41 -88 75 -161 75 -164 0 -2 47 -90 105 -196 58
-106 105 -200 105 -210 0 -11 -18 -25 -52 -40 -172 -76 -276 -137 -574 -341
-200 -138 -208 -143 -224 -146 -8 -2 -35 -23 -59 -47 -43 -43 -44 -45 -42
-102 1 -32 11 -77 21 -101 l19 -43 -23 -38 c-22 -34 -40 -86 -64 -186 -8 -34
-65 -188 -177 -485 -18 -47 -25 -85 -25 -136 0 -39 -3 -74 -6 -77 -4 -3 -16
-1 -27 5 -17 9 -19 8 -13 -8 4 -10 4 -15 0 -11 -4 4 -14 1 -22 -6 -13 -10 -15
-9 -9 6 10 28 -1 20 -18 -13 -9 -16 -12 -30 -8 -30 5 0 3 -4 -2 -8 -6 -4 -20
-32 -32 -62 -12 -30 -25 -64 -29 -74 -6 -15 -4 -17 7 -11 12 7 12 6 -1 -9 -13
-16 -12 -20 5 -32 10 -8 22 -14 27 -14 4 0 8 -14 8 -30 0 -17 9 -40 20 -52 11
-12 20 -33 20 -47 0 -14 7 -35 15 -45 11 -15 15 -48 15 -121 0 -106 15 -211
32 -232 6 -8 7 -32 3 -60 -4 -27 -9 -87 -11 -136 -2 -48 -12 -145 -23 -215
-11 -70 -25 -167 -31 -216 -11 -93 -29 -139 -55 -149 -10 -5 -15 -20 -15 -50
0 -84 8 -101 51 -115 47 -15 92 -15 105 -2 7 7 16 4 29 -10 10 -11 29 -20 43
-20 21 0 23 3 18 26 -4 14 -2 41 4 60 9 26 17 34 36 34 22 0 24 -4 24 -48 0
-26 -5 -53 -12 -60 -17 -17 6 -62 31 -62 40 0 51 12 57 62 5 35 10 46 17 39
14 -14 74 -14 82 -1 10 17 21 11 34 -16 12 -26 14 -27 78 -21 36 4 72 12 79
18 12 9 17 8 27 -5 9 -12 23 -17 42 -14 24 2 31 9 38 38 5 19 7 52 4 73 -3 20
-1 37 3 37 5 0 10 -10 12 -22 2 -18 10 -23 36 -24 17 -1 33 4 33 10 1 6 3 22
4 36 3 27 -11 271 -20 356 -5 45 -10 53 -30 56 -41 8 -45 -2 -41 -110 2 -56 0
-102 -5 -102 -5 0 -9 4 -9 8 0 8 -43 32 -55 32 -3 0 -2 -15 0 -32 10 -63 -46
147 -60 227 -7 44 -25 143 -39 220 -26 148 -40 373 -39 640 0 127 5 173 30
300 17 83 31 142 32 132 1 -10 6 -15 11 -12 6 3 10 -2 10 -13 0 -27 43 -45 67
-27 10 8 27 15 38 15 20 0 39 41 52 110 2 14 8 27 14 28 17 6 9 21 -13 25 -22
4 -22 4 2 6 20 1 22 3 10 11 -13 8 -13 10 2 10 12 0 19 13 24 48 5 26 7 51 6
55 -1 4 5 10 13 13 8 4 15 12 15 20 0 17 17 19 22 2 2 -6 4 6 5 28 0 37 2 49
16 84 12 34 14 59 5 71 -8 11 -9 10 -4 -3 3 -10 1 -18 -4 -18 -6 0 -10 9 -10
20 0 26 -11 25 -33 -1 -10 -11 -24 -18 -32 -15 -7 2 -16 -1 -19 -9 -3 -8 0
-15 7 -18 9 -3 9 -10 0 -30 -7 -15 -10 -34 -7 -42 4 -8 2 -15 -4 -15 -6 0 -13
6 -15 13 -3 6 -6 2 -6 -10 -1 -14 -8 -23 -23 -25 -17 -2 -26 -15 -38 -55 -21
-71 -27 -73 -22 -8 5 59 -9 90 -36 80 -9 -3 -19 0 -24 7 -5 9 -8 3 -10 -17 -1
-16 -2 -48 -4 -70 -1 -22 -3 -70 -4 -107 -1 -37 -6 -70 -11 -73 -5 -4 -9 63
-9 167 0 95 -3 211 -6 258 -3 47 -2 80 3 73 6 -8 13 -8 28 3 17 13 18 16 5 24
-13 8 -12 10 3 10 20 0 22 13 6 42 -8 16 -8 23 2 30 9 5 4 6 -13 2 -19 -4 -28
-2 -28 6 0 7 -8 10 -19 7 -23 -6 -37 19 -21 38 5 6 8 34 6 62 -6 71 6 85 40
45 32 -36 60 -41 80 -14 12 15 13 14 14 -14 0 -31 49 -91 63 -77 4 3 7 -2 7
-13 0 -24 36 -84 50 -84 6 0 30 18 53 40 40 39 42 40 47 19 7 -28 23 -34 43
-15 8 8 18 12 22 8 5 -4 5 -2 2 4 -3 6 1 23 9 39 13 25 13 31 -2 52 -15 24
-16 24 -29 6 -7 -10 -16 -15 -19 -12 -11 11 123 169 144 169 10 0 24 9 30 19
5 11 18 22 28 25 10 4 31 30 45 58 15 29 27 49 27 44 0 -4 14 1 31 11 39 23
69 79 73 139 3 38 9 51 35 71 17 14 38 38 46 54 19 35 32 37 46 5 9 -19 6 -31
-17 -67 -56 -89 -124 -267 -144 -380 -16 -90 -30 -136 -60 -199 -15 -30 -30
-68 -34 -84 -4 -17 -29 -75 -56 -130 -57 -116 -97 -246 -111 -361 -15 -120
-29 -202 -50 -285 -21 -86 -55 -358 -63 -505 -3 -55 -13 -136 -23 -180 -14
-69 -16 -144 -16 -527 1 -246 4 -452 8 -458 3 -5 16 -10 27 -10 18 0 20 4 15
37 -5 27 -3 33 3 23 9 -13 11 -13 20 0 5 8 10 11 10 6 0 -6 5 -5 12 2 7 7 17
8 28 2 11 -6 26 -4 43 5 22 11 28 11 38 -1 10 -12 13 -12 24 2 8 12 14 14 19
6 4 -7 16 -12 28 -12 11 0 33 -11 50 -25 39 -33 92 -37 134 -10 12 8 30 13 40
13 11 -1 29 2 42 6 16 5 24 3 28 -9 5 -12 9 -13 20 -4 9 7 14 8 14 1 0 -17 93
-43 128 -36 18 4 32 10 32 14 0 5 18 11 40 15 22 4 42 11 46 16 3 5 18 9 34 9
42 0 59 9 76 42 15 29 16 29 35 12 10 -9 19 -24 19 -33 0 -9 7 -24 14 -34 12
-15 14 -12 20 29 3 26 6 216 6 422 0 374 10 534 35 569 11 14 38 18 171 25 88
4 212 9 277 13 64 3 117 3 117 0 0 -16 -63 -120 -72 -117 -5 1 -7 -2 -3 -7 7
-12 -39 -153 -66 -199 -10 -18 -19 -40 -19 -48 0 -8 -4 -15 -10 -15 -5 -1 -14
-3 -20 -4 -5 -1 -14 -3 -20 -4 -5 0 -10 -8 -10 -17 0 -8 -4 -13 -10 -9 -5 3
-16 -8 -25 -24 -33 -65 -134 -361 -179 -526 -13 -49 -31 -111 -40 -137 -8 -27
-12 -49 -8 -49 40 -8 90 -4 104 8 19 17 53 10 42 -8 -3 -6 -1 -15 6 -19 10 -6
10 -15 0 -45 -11 -34 -11 -40 6 -52 38 -28 54 -17 91 64 40 88 60 116 77 105
20 -12 31 -8 45 20 14 28 31 29 31 1 0 -19 31 -86 44 -95 17 -12 52 -9 83 6
15 8 36 17 46 20 9 3 17 15 17 27 0 37 27 59 57 48 14 -5 46 -7 72 -3 46 6 46
6 59 -30 13 -34 16 -36 57 -36 24 0 46 -4 49 -9 3 -4 16 -7 28 -6 13 1 29 3
36 4 6 0 22 12 34 26 l21 24 14 -25 c7 -15 13 -39 13 -55 0 -37 30 -53 88 -46
24 3 60 0 80 -5 40 -11 82 2 82 26 0 16 34 29 73 26 17 -1 29 4 33 15 6 14 10
11 20 -14 7 -17 20 -31 29 -31 16 0 55 34 55 49 0 5 12 11 28 13 20 2 28 9 30
28 3 24 5 25 62 22 50 -3 61 -1 67 13 5 14 9 11 22 -16 16 -34 44 -47 69 -31
7 5 16 34 19 65 l6 56 -39 7 c-88 15 -332 204 -377 290 -21 40 -74 62 -167 67
-93 5 -121 18 -150 69 -18 31 -21 49 -17 83 6 41 4 46 -41 95 -26 29 -74 71
-107 93 -64 44 -234 208 -254 245 -11 20 -7 27 34 71 91 96 126 157 233 406
79 186 116 303 101 321 -23 28 42 15 157 -31 61 -25 116 -45 122 -45 5 0 15
-7 22 -15 7 -8 22 -15 34 -15 13 0 33 -11 46 -25 34 -36 82 -50 117 -32 15 8
51 20 79 27 44 11 55 11 83 -3 31 -15 33 -15 84 15 29 17 61 31 71 30 33 -2
75 -23 79 -40 4 -14 5 -13 6 2 1 20 1 20 15 0 13 -16 17 -17 28 -5 7 8 8 11 1
7 -6 -3 -3 12 8 33 10 22 19 45 19 51 0 5 4 18 9 28 5 9 19 41 32 70 12 28 26
52 31 52 4 0 8 7 8 15 0 9 7 18 15 21 8 3 23 21 34 39 18 31 53 75 94 118 10
10 25 16 33 13 8 -3 14 -2 14 2 0 4 14 13 31 21 17 7 33 21 37 30 9 25 29 41
50 41 11 0 48 13 83 29 l64 29 14 -22 c8 -11 23 -28 33 -37 10 -9 18 -21 18
-28 0 -6 6 -11 13 -11 15 0 65 -70 115 -160 17 -31 42 -66 56 -79 14 -14 26
-32 26 -40 0 -14 -2 -14 -11 -1 -9 12 -10 12 -5 -3 3 -10 6 -21 6 -23 0 -2 6
-4 13 -4 7 0 23 -24 35 -53 24 -57 28 -82 12 -72 -12 7 6 -43 21 -61 6 -7 24
-52 40 -100 28 -84 47 -114 59 -94 3 4 4 -47 2 -113 -1 -67 3 -194 10 -282 12
-147 15 -160 32 -160 16 0 24 15 41 85 12 47 32 116 44 154 26 86 27 131 0
204 -12 31 -27 80 -34 107 -7 28 -18 62 -23 77 -10 23 -9 26 5 21 13 -5 15 3
9 63 -3 38 -8 120 -12 182 -6 104 -8 114 -31 132 -14 11 -31 20 -37 20 -27 0
-86 104 -86 149 0 17 -13 70 -29 118 -102 304 -161 528 -154 582 6 40 -9 81
-30 81 -7 0 -6 -4 3 -10 8 -5 10 -10 4 -10 -18 0 -24 12 -13 26 8 10 -1 25
-38 61 -37 37 -99 75 -263 160 -118 61 -257 127 -309 147 -98 38 -138 58 -349
177 -190 107 -264 152 -292 176 l-25 21 34 84 c18 45 59 133 91 193 31 61 72
148 90 195 18 47 50 127 71 179 42 102 44 108 29 131 -13 20 -24 4 -106 -150
-78 -147 -171 -278 -279 -394 -5 -6 -30 -37 -54 -69 -51 -66 -105 -117 -127
-117 -23 0 -5 25 77 110 119 124 236 283 266 360 9 25 41 86 71 135 39 64 54
100 54 126 1 36 1 37 31 28 29 -8 29 -8 11 12 -22 24 -77 54 -149 80 -27 10
-88 32 -135 49 -46 16 -92 30 -102 30 -10 0 -26 15 -37 38 -11 20 -51 82 -90
136 -39 55 -71 102 -71 106 0 4 17 26 37 50 54 62 180 153 281 201 292 139
287 136 351 204 66 72 89 109 119 200 24 74 16 149 -28 281 -38 112 -42 229
-9 283 20 34 20 81 -1 81 -6 0 -24 -21 -40 -47 -45 -70 -41 -143 14 -266 20
-45 36 -140 36 -213 0 -94 -62 -232 -123 -273 -12 -8 -19 -11 -15 -6 12 13
-30 37 -52 30 -17 -5 -18 -3 -10 24 5 17 11 35 15 41 3 5 -1 10 -9 10 -9 0
-16 -7 -16 -15 0 -8 -4 -15 -10 -15 -5 0 -10 -7 -10 -15 0 -8 -4 -15 -9 -15
-5 0 -17 -7 -25 -16 -9 -8 -25 -16 -35 -17 -11 -1 -18 -3 -16 -6 7 -6 -94 -51
-139 -60 -131 -29 -183 -34 -237 -21 -30 7 -57 15 -61 17 -5 2 1 22 13 45 11
22 35 79 54 126 33 88 220 491 233 504 4 4 30 -3 58 -16 81 -38 153 -136 188
-259 22 -75 23 -115 3 -153 -12 -24 -13 -34 -4 -44 10 -10 8 -12 -5 -7 -20 7
-25 -8 -7 -19 16 -10 29 17 23 46 -5 20 -3 22 6 10 10 -13 11 -13 7 0 -2 8 1
32 8 52 19 65 3 163 -39 248 -43 87 -68 118 -124 155 -48 32 -55 47 -40 80 8
18 15 22 23 15 9 -8 15 -4 20 12 4 13 6 29 6 36 -1 6 2 12 6 12 4 0 9 28 10
63 1 34 6 74 12 90 18 46 -32 219 -70 243 -7 4 -9 3 -6 -3 4 -6 -1 -29 -10
-51 -13 -35 -19 -40 -34 -32 -17 9 -16 12 7 54 l24 43 -25 45 c-14 25 -56 73
-94 107 l-69 61 -23 -27 c-13 -17 -20 -21 -16 -10 4 10 7 25 7 33 0 10 5 12
13 8 8 -5 8 -2 -2 9 -14 18 -23 22 -19 10 1 -5 -3 -29 -11 -55 -15 -53 -41
-67 -79 -42 -23 15 -23 15 -4 32 28 24 45 81 31 98 -6 8 -18 14 -26 14 -8 0
-12 4 -8 9 3 5 1 13 -5 16 -6 4 -10 3 -9 -2z m-34 -449 c-7 -16 -20 -51 -27
-79 -15 -59 -156 -419 -175 -449 -8 -12 -41 -84 -73 -161 -82 -195 -83 -197
-105 -180 -12 8 -14 15 -8 20 6 3 11 15 11 25 0 11 32 93 71 182 78 178 138
331 201 508 23 63 52 132 65 154 22 34 26 37 40 23 13 -13 13 -18 0 -43z
m-510 -40 c-6 -20 -13 -32 -14 -27 -4 11 14 63 21 63 2 0 -1 -16 -7 -36z m722
-228 c-7 -14 -16 -23 -20 -20 -5 3 -6 -2 -3 -10 3 -8 -3 -23 -13 -33 -36 -37
-61 -97 -60 -146 0 -27 -6 -53 -13 -60 -10 -9 -11 -9 -5 2 5 9 4 12 -3 7 -6
-4 -9 -12 -6 -19 7 -19 -62 -173 -76 -169 -6 1 -9 -2 -5 -8 6 -10 -28 -76 -60
-115 -17 -21 -17 -20 7 35 37 83 82 192 118 285 62 165 132 309 142 291 5 -8
3 -25 -3 -40z m-1187 -592 c7 -5 42 -18 78 -30 36 -11 64 -25 63 -30 -3 -11
-47 -138 -50 -142 -1 -2 -17 1 -35 7 -38 12 -93 19 -155 20 -31 1 -43 5 -43
16 0 9 -9 15 -25 15 -30 0 -30 -1 -7 71 26 85 36 92 104 86 31 -3 63 -9 70
-13z m220 -97 c-2 -10 4 -24 12 -32 13 -13 13 -20 0 -59 -15 -44 -16 -44 -60
-43 -24 1 -44 3 -44 5 0 12 44 130 52 140 15 18 44 10 40 -11z m192 -67 c11
-11 -1 -30 -20 -30 -8 0 -14 9 -14 19 0 11 -6 21 -12 24 -7 2 -2 2 12 0 14 -3
29 -8 34 -13z m122 -96 c-1 -40 -42 -94 -70 -94 -21 0 -20 3 6 72 18 45 28 58
44 58 18 0 21 -6 20 -36z m-373 -31 c46 -15 94 -39 120 -59 108 -88 112 -94
97 -136 -11 -29 -9 -41 13 -96 l26 -63 -22 8 c-27 10 -150 5 -197 -7 -46 -12
-129 -65 -137 -87 -4 -10 -17 -35 -30 -55 -30 -49 -31 -99 -4 -178 13 -36 23
-83 23 -105 -1 -22 4 -45 10 -52 6 -7 7 -28 4 -48 -3 -19 -9 -51 -12 -70 -7
-38 -25 -48 -83 -46 -20 1 -71 3 -113 4 -87 2 -88 4 -68 77 9 32 8 34 -6 15
-89 -118 -132 -164 -166 -175 -45 -16 -102 -18 -146 -7 -22 5 -38 4 -46 -3 -9
-7 -22 -7 -40 0 -27 10 -30 7 -27 -22 3 -29 -16 -21 -29 13 -7 16 -16 26 -20
22 -10 -11 -30 -178 -30 -246 0 -31 -4 -58 -9 -61 -19 -12 -17 103 5 224 25
141 54 346 65 465 8 91 31 169 57 199 10 12 36 48 58 80 108 164 393 386 533
416 33 7 58 16 56 20 -6 10 22 4 118 -27z m234 -19 c-7 -7 -37 7 -37 17 0 6 9
5 21 -1 11 -7 19 -14 16 -16z m336 -131 c-4 -11 -3 -14 5 -9 8 5 8 -1 0 -25
-8 -23 -13 -28 -20 -17 -7 10 -11 10 -15 1 -2 -7 -9 -13 -14 -13 -12 0 -11 21
0 39 8 13 12 13 28 1 13 -10 15 -10 6 -1 -12 14 -7 41 8 41 4 0 5 -7 2 -17z
m-364 -244 c29 -10 32 -15 29 -45 -4 -40 1 -38 -81 -29 -111 12 -119 20 -59
59 42 28 65 31 111 15z m158 -121 c-3 -7 -5 -2 -5 12 0 14 2 19 5 13 2 -7 2
-19 0 -25z m-243 3 c3 -5 -11 -11 -32 -15 -20 -3 -49 -12 -64 -20 -32 -17 -38
-3 -11 26 17 19 97 26 107 9z m241 -64 c4 -17 14 -42 22 -55 8 -13 17 -45 20
-73 6 -49 6 -49 -47 -99 -29 -27 -56 -47 -61 -44 -5 2 -22 -2 -38 -11 -17 -8
-39 -15 -51 -15 -11 0 -32 -8 -46 -17 -24 -15 -28 -15 -52 0 -49 29 -132 114
-132 135 0 15 11 24 38 33 20 7 31 14 25 16 -31 11 -9 19 34 13 25 -4 56 -5
67 -3 26 6 97 43 114 60 20 19 3 15 -53 -12 -49 -25 -128 -34 -139 -16 -3 4
15 11 39 15 42 5 119 41 204 94 41 25 47 22 56 -21z m-171 -6 c3 -4 -6 -13
-19 -19 -27 -12 -28 -12 -19 12 7 17 29 22 38 7z m-150 -41 c-5 -5 -20 -7 -32
-3 -22 5 -22 6 -6 25 16 17 19 17 33 3 10 -10 12 -18 5 -25z m792 -197 c18
-76 18 -77 24 -39 l5 40 10 -45 c6 -24 7 -64 4 -89 -6 -43 -6 -44 -9 -10 l-3
35 -7 -35 -6 -35 -8 38 c-5 20 -12 37 -16 37 -5 0 -8 12 -8 28 1 28 -10 103
-18 135 -3 9 -1 17 4 17 6 0 18 -35 28 -77z m80 -50 c3 -49 2 -53 -5 -23 -19
79 -22 105 -10 93 7 -7 14 -38 15 -70z m74 -18 c0 -33 -5 -67 -10 -75 -7 -10
-10 13 -10 75 0 62 3 85 10 75 5 -8 10 -42 10 -75z m-988 14 c16 -8 19 -8 13
1 -5 8 -3 11 6 8 8 -3 15 -12 17 -21 3 -13 -1 -15 -14 -10 -13 5 -16 3 -11
-10 5 -13 1 -17 -18 -17 -21 0 -25 5 -25 30 0 33 2 35 32 19z m-1187 -150 c-4
-12 -3 -19 2 -16 5 3 18 -19 28 -49 24 -70 39 -81 31 -23 l-6 44 15 -30 c8
-16 14 -35 15 -42 0 -7 8 -17 19 -22 17 -10 49 -96 39 -106 -2 -3 -17 19 -31
47 -15 29 -27 46 -27 38 0 -9 -5 -8 -20 5 -23 21 -24 17 -10 -20 6 -15 7 -32
4 -37 -13 -20 -80 193 -70 219 9 22 18 15 11 -8z m144 -127 l10 -37 -24 29
c-23 28 -38 82 -27 100 5 10 26 -36 41 -92z m721 18 c0 -31 18 -32 34 -3 13
24 15 25 16 8 0 -11 6 -32 14 -47 12 -23 12 -26 0 -21 -8 3 -14 1 -14 -4 0
-11 -61 -32 -105 -35 -31 -3 -43 17 -30 50 6 15 8 15 15 -3 l8 -20 8 20 c4 11
12 23 16 26 8 5 15 25 17 52 2 17 21 -5 21 -23z m374 -5 c20 -31 20 -41 0 -24
-13 11 -17 10 -26 -4 -12 -22 -28 -13 -28 17 0 43 29 49 54 11z m-90 -47 c-3
-4 20 -8 50 -8 54 0 75 -13 39 -24 -53 -16 -208 -36 -275 -36 -76 0 -101 11
-55 26 25 8 20 7 135 18 45 5 82 12 82 17 0 5 -7 6 -15 3 -10 -4 -15 0 -15 11
0 11 5 15 15 12 8 -4 17 -1 21 5 4 7 9 6 15 -3 4 -7 5 -17 3 -21z m-557 -79
c-6 -47 -9 -51 -30 -44 -13 6 -13 10 1 46 20 51 36 50 29 -2z m133 35 c0 -5
-64 -34 -76 -34 -3 0 -4 6 -2 12 6 16 78 37 78 22z m-97 -28 c6 -15 -1 -26
-15 -26 -4 0 -8 9 -8 20 0 23 15 27 23 6z m733 -19 c0 -24 9 -41 37 -68 36
-35 49 -69 25 -69 -6 0 -26 -17 -44 -39 -37 -42 -100 -64 -115 -40 -4 8 -11
11 -14 7 -8 -8 -45 23 -45 38 0 6 24 36 53 66 61 64 68 74 84 111 16 35 19 34
19 -6z m-824 -15 c6 -20 -18 -60 -28 -49 -9 9 5 79 15 72 5 -2 11 -13 13 -23z
m713 -22 c-27 -30 -69 -38 -210 -42 -104 -2 -130 0 -130 11 0 14 20 17 185 25
52 3 111 11 130 20 42 17 50 13 25 -14z m-425 -15 c7 -8 16 -12 21 -9 5 3 9 1
9 -5 0 -5 9 -13 21 -16 15 -5 18 -10 9 -20 -13 -16 16 -39 63 -51 20 -4 26
-11 22 -22 -3 -8 2 -23 11 -33 27 -30 15 -37 -92 -55 -43 -8 -70 9 -104 63
-39 61 -49 129 -24 148 25 19 49 19 64 0z m-436 -27 c3 -13 6 -52 6 -88 0 -36
5 -103 11 -150 6 -47 13 -110 14 -140 2 -30 6 -68 9 -85 l7 -30 -15 33 c-8 17
-19 32 -24 32 -15 0 -39 59 -50 120 -9 48 -8 52 4 35 12 -16 14 1 14 138 0
144 8 192 24 135z m-99 -326 c4 -19 3 -32 -3 -32 -24 0 -49 126 -37 187 8 36
9 34 20 -42 7 -45 16 -95 20 -113z m165 121 c20 -103 28 -115 29 -44 1 35 4
62 7 59 12 -12 42 -227 36 -252 -7 -25 -8 -25 -44 23 -32 44 -37 59 -43 128
-4 43 -8 93 -10 111 -6 54 13 36 25 -25z m300 6 c0 -24 -4 -38 -10 -34 -5 3
-10 24 -10 46 0 24 4 38 10 34 6 -3 10 -24 10 -46z m-150 -91 c5 -46 11 -100
15 -120 6 -32 4 -38 -10 -38 -11 0 -15 -5 -11 -15 3 -8 1 -15 -4 -15 -16 0
-26 84 -22 189 5 124 21 124 32 -1z m-52 -3 c0 -34 -1 -36 -8 -15 -4 14 -8 45
-8 70 0 40 1 42 8 15 4 -16 8 -48 8 -70z m147 7 c13 -79 16 -87 26 -71 7 11 9
10 9 -5 0 -19 0 -19 21 0 19 17 21 18 30 1 6 -9 16 -17 23 -17 8 0 15 -19 19
-52 4 -29 9 -64 13 -77 5 -16 4 -22 -4 -17 -6 3 -14 2 -17 -4 -4 -6 -18 -1
-37 15 -16 14 -35 25 -41 25 -27 1 -40 22 -53 86 -16 82 -18 168 -4 159 5 -3
12 -22 15 -43z m-34 -111 c21 -70 24 -101 9 -101 -5 0 -14 9 -21 21 -13 25
-29 169 -20 184 3 6 7 -1 9 -15 2 -14 12 -54 23 -89z m434 42 c9 -26 19 -149
11 -141 -8 7 -35 114 -36 141 0 22 16 22 25 0z m91 -57 c10 -54 -1 -64 -13
-12 -5 25 -7 46 -2 46 4 0 11 -16 15 -34z m-238 -111 l-4 -30 -11 38 c-14 45
-5 86 9 46 5 -13 7 -37 6 -54z m2625 -532 c-7 -2 -19 -2 -25 0 -7 3 -2 5 12 5
14 0 19 -2 13 -5z m-4183 -158 c7 -8 19 -15 27 -15 8 0 13 -7 11 -17 -2 -10
-10 -18 -18 -18 -9 0 -17 -13 -20 -30 l-5 -30 -17 42 c-10 23 -22 44 -28 48
-8 5 -8 11 1 21 15 18 33 18 49 -1z m3970 -136 c8 -10 27 -23 43 -28 38 -15
56 -55 34 -79 -10 -10 -14 -21 -11 -25 10 -9 -28 -24 -96 -37 -36 -7 -87 -21
-113 -32 -52 -20 -93 -16 -114 11 -7 9 -10 22 -8 29 3 7 -2 24 -11 37 -14 22
-14 24 18 48 18 14 60 38 93 55 33 17 69 37 80 45 22 17 59 6 85 -24z m-3893
-171 c-3 -8 -6 -5 -6 6 -1 11 2 17 5 13 3 -3 4 -12 1 -19z m16 -33 c-3 -9 -8
-14 -10 -11 -3 3 -2 9 2 15 9 16 15 13 8 -4z m3787 -175 c0 -5 -7 -10 -16 -10
-8 0 -12 -4 -9 -10 3 -6 -4 -10 -17 -10 l-23 0 25 20 c28 22 40 25 40 10z
m-300 -35 c-7 -9 -15 -13 -19 -10 -3 3 1 10 9 15 21 14 24 12 10 -5z m270 -20
c-7 -9 -15 -13 -19 -10 -3 3 1 10 9 15 21 14 24 12 10 -5z m-300 -25 c-6 -11
-13 -20 -16 -20 -2 0 0 9 6 20 6 11 13 20 16 20 2 0 0 -9 -6 -20z m-2725 -381
c66 -6 132 -11 148 -11 31 1 31 2 15 -33 -10 -22 -8 -29 12 -50 28 -30 20 -43
-15 -27 -17 8 -25 20 -25 36 0 14 -4 28 -10 31 -6 4 -10 -5 -10 -19 0 -19 -7
-27 -26 -32 -33 -8 -316 14 -328 26 -5 5 -6 16 -2 25 5 15 17 16 86 11 44 -4
105 -11 137 -16 80 -13 120 -13 106 1 -6 6 -80 17 -164 25 -85 7 -155 13 -156
14 -2 0 -3 9 -3 20 0 22 -23 22 235 -1z m-1330 -349 c3 -6 -1 -7 -9 -4 -18 7
-21 14 -7 14 6 0 13 -4 16 -10z m1473 -180 c-5 -68 -5 -70 18 -70 12 0 26 -5
29 -11 4 -6 13 -8 21 -5 8 3 13 0 11 -6 -1 -8 26 -12 88 -14 126 -2 127 -2
155 -25 l25 -20 -124 5 c-83 3 -126 8 -131 16 -5 8 -10 2 -15 -18 -7 -34 -19
-46 -53 -56 -17 -6 -29 0 -52 23 l-30 29 6 -26 c4 -15 10 -31 14 -37 4 -5 1
-54 -6 -109 -7 -54 -10 -105 -7 -113 3 -8 0 -31 -6 -51 -8 -25 -9 -61 -4 -112
7 -67 10 -75 28 -72 11 2 21 5 23 7 7 6 12 62 18 170 3 61 7 133 8 160 2 28 4
62 5 78 1 16 7 27 16 27 8 0 27 16 42 35 23 29 33 34 58 31 16 -3 73 -10 125
-16 136 -16 140 -17 140 -41 0 -20 -4 -20 -147 -14 -82 4 -153 8 -160 10 -27
8 -35 -27 -39 -172 -7 -230 -11 -283 -18 -290 -13 -13 -5 -22 17 -20 27 2 249
-12 299 -19 24 -4 38 -12 41 -24 4 -16 -2 -19 -32 -22 -36 -3 -261 16 -313 26
-20 4 -26 2 -22 -9 9 -23 -32 -55 -73 -56 -21 -1 -42 0 -48 2 -5 1 -41 4 -80
6 -126 7 -308 40 -322 59 -18 25 -16 37 5 29 24 -10 248 -43 302 -45 61 -2 66
-2 54 9 -5 6 -43 14 -84 20 -41 5 -85 12 -97 15 -58 15 -71 17 -113 22 -62 6
-80 13 -80 30 0 22 26 28 73 16 127 -32 187 -43 256 -49 l77 -6 12 29 c8 19
14 107 16 246 l3 216 -111 11 c-146 15 -251 32 -266 41 -7 4 -10 15 -7 23 4
11 16 13 59 6 152 -22 218 -29 268 -28 51 1 53 2 20 9 -41 10 -249 39 -300 43
-25 1 -36 7 -38 21 -5 25 16 36 45 25 13 -5 85 -14 161 -20 75 -6 148 -16 162
-23 23 -11 28 -10 44 12 13 16 21 48 24 93 2 38 7 69 10 69 2 0 2 -31 0 -70z
m256 -783 c94 -8 141 -16 144 -24 2 -9 -10 -13 -40 -14 -23 0 -59 -2 -78 -4
-36 -4 -188 11 -215 21 -8 4 -15 12 -15 20 0 17 14 17 204 1z m186 -38 c0 -4
-7 -6 -15 -3 -8 4 -15 10 -15 15 0 4 7 6 15 3 8 -4 15 -10 15 -15z m-401 -35
c7 -6 -23 -334 -30 -334 -19 0 -30 80 -25 175 3 55 6 117 6 138 0 35 2 38 23
31 12 -3 24 -8 26 -10z m-1413 -334 c17 0 24 -8 29 -31 10 -42 -3 -49 -29 -16
l-23 28 -11 -23 c-10 -21 -11 -18 -11 22 -1 34 2 41 11 32 7 -7 22 -12 34 -12z"/>
<path d="M3535 6029 c-4 -6 -5 -12 -2 -15 2 -3 7 2 10 11 7 17 1 20 -8 4z"/>
<path d="M2063 5070 c-82 -12 -153 -81 -141 -137 3 -14 10 -8 28 24 16 27 39
48 63 60 35 15 46 16 120 3 103 -17 173 -18 188 -3 10 10 6 15 -17 23 -16 6
-40 13 -54 14 -14 1 -24 8 -22 14 2 14 -79 14 -165 2z"/>
<path d="M2169 4981 c-48 -10 -124 -55 -146 -87 -10 -14 -26 -34 -35 -45 -10
-10 -15 -25 -12 -33 3 -9 -5 -18 -23 -24 -26 -10 -23 -10 25 -11 28 -1 52 3
52 7 0 5 44 8 98 8 53 -1 106 3 116 8 16 8 18 6 14 -12 -9 -32 2 -27 45 19 40
42 57 46 37 9 -6 -12 -9 -24 -7 -27 8 -7 37 53 37 76 0 30 -11 51 -26 51 -7 0
-18 9 -23 19 -9 16 -92 54 -110 50 -3 -1 -22 -4 -42 -8z m74 -60 c19 -10 43
-21 53 -25 10 -3 3 -3 -16 0 -19 3 -66 7 -105 10 -64 5 -73 3 -109 -21 -43
-29 -59 -26 -30 6 44 49 147 64 207 30z m37 -72 c0 -5 -6 -9 -14 -9 -8 0 -21
-3 -30 -6 -12 -5 -16 0 -16 19 0 24 2 25 30 16 17 -6 30 -15 30 -20z m-170
-19 c10 -18 8 -20 -19 -20 -36 0 -48 15 -24 29 25 15 31 14 43 -9z"/>
<path d="M1982 4748 c-22 -22 -12 -27 24 -12 20 8 43 13 50 10 8 -3 14 -1 14
4 0 14 -74 12 -88 -2z"/>
<path d="M1848 1326 c-14 -33 -4 -56 25 -56 43 0 61 49 26 71 -24 15 -39 10
-51 -15z"/>
<path d="M1791 721 c-8 -14 -5 -23 14 -41 20 -19 27 -21 40 -10 21 17 19 47
-4 60 -28 14 -39 13 -50 -9z"/>
<path d="M3359 7104 c-11 -14 -10 -15 11 -12 13 1 25 9 28 16 5 17 -23 15 -39
-4z"/>
<path d="M2314 6979 c-4 -7 -7 -43 -7 -79 0 -36 -2 -57 -6 -48 -3 10 -6 -14
-7 -52 0 -39 1 -70 2 -70 2 0 55 226 58 244 2 15 -31 19 -40 5z"/>
<path d="M2631 6853 c-6 -26 -23 -92 -39 -146 -22 -79 -30 -97 -43 -94 -12 3
-19 -4 -23 -25 -7 -36 2 -56 16 -37 7 10 8 3 4 -21 -9 -52 10 -18 34 63 24 79
72 298 66 304 -2 2 -9 -18 -15 -44z"/>
<path d="M2111 6794 c0 -11 3 -14 6 -6 3 7 2 16 -1 19 -3 4 -6 -2 -5 -13z"/>
<path d="M2091 6709 c-7 -33 -10 -63 -8 -65 2 -3 10 23 16 57 7 33 10 63 8 65
-2 3 -10 -23 -16 -57z"/>
<path d="M2267 6678 c-15 -23 -73 -256 -84 -334 -8 -64 12 -61 27 4 7 31 28
122 47 200 19 79 32 146 30 149 -3 2 -12 -6 -20 -19z"/>
<path d="M2072 6610 c0 -14 2 -19 5 -12 2 6 2 18 0 25 -3 6 -5 1 -5 -13z"/>
<path d="M2036 6448 c-15 -73 -30 -144 -33 -158 -3 -14 -3 -22 1 -19 8 8 68
287 64 300 -2 5 -16 -50 -32 -123z"/>
<path d="M1991 6234 c0 -11 3 -14 6 -6 3 7 2 16 -1 19 -3 4 -6 -2 -5 -13z"/>
<path d="M2444 6219 c-9 -15 -34 -110 -34 -132 0 -10 5 -15 10 -12 6 3 10 1
10 -4 0 -6 -9 -11 -20 -11 -13 0 -18 -5 -13 -15 7 -20 35 -16 38 5 2 8 10 44
19 80 25 99 25 100 11 100 -8 0 -17 -5 -21 -11z"/>
<path d="M1981 6184 c0 -11 3 -14 6 -6 3 7 2 16 -1 19 -3 4 -6 -2 -5 -13z"/>
<path d="M2131 6044 c0 -11 3 -14 6 -6 3 7 2 16 -1 19 -3 4 -6 -2 -5 -13z"/>
<path d="M1945 6008 c-4 -18 -12 -39 -19 -47 -9 -12 -8 -12 12 -2 16 9 22 21
22 46 0 44 -6 45 -15 3z"/>
<path d="M2182 5977 c-12 -13 -22 -30 -22 -38 0 -8 9 1 20 19 14 23 27 32 45
32 19 0 24 -4 18 -12 -4 -7 -8 -28 -9 -46 l-1 -33 25 24 c19 19 23 31 18 51
-5 21 -12 26 -39 26 -22 0 -41 -8 -55 -23z"/>
<path d="M2053 5835 c-3 -9 -3 -18 0 -22 10 -10 37 6 37 22 0 20 -29 20 -37 0z"/>
<path d="M2061 5764 c0 -11 3 -14 6 -6 3 7 2 16 -1 19 -3 4 -6 -2 -5 -13z"/>
<path d="M4025 5730 c-3 -5 -1 -10 4 -10 6 0 11 5 11 10 0 6 -2 10 -4 10 -3 0
-8 -4 -11 -10z"/>
<path d="M2045 5710 c3 -5 11 -10 16 -10 6 0 7 5 4 10 -3 6 -11 10 -16 10 -6
0 -7 -4 -4 -10z"/>
<path d="M2116 5375 c-11 -8 -15 -15 -9 -15 6 0 16 7 23 15 16 19 11 19 -14 0z"/>
<path d="M1274 2236 c-11 -12 -26 -45 -28 -61 -1 -5 -8 -28 -15 -50 -15 -46
-12 -97 7 -103 8 -2 12 9 12 37 0 23 7 58 15 78 8 19 15 48 15 63 0 16 5 30
12 32 7 3 8 7 3 10 -6 3 -15 1 -21 -6z"/>
<path d="M1980 2160 c0 -5 12 -12 28 -16 70 -15 132 -35 137 -44 9 -14 63 -12
68 3 2 6 2 20 -1 30 -4 15 -17 17 -93 17 -48 0 -99 4 -113 10 -17 6 -26 6 -26
0z"/>
<path d="M4632 1870 c0 -14 2 -19 5 -12 2 6 2 18 0 25 -3 6 -5 1 -5 -13z"/>
<path d="M4675 1859 c-4 -6 -5 -12 -2 -15 2 -3 7 2 10 11 7 17 1 20 -8 4z"/>
<path d="M2075 1571 c7 -36 26 -61 45 -61 29 0 25 34 -6 59 -33 26 -44 27 -39
2z"/>
<path d="M4260 260 c8 -6 26 -8 40 -5 19 4 27 0 35 -17 8 -18 18 -23 48 -23
50 0 48 15 -5 36 -47 19 -145 26 -118 9z"/>
</g>
</svg>
